# xmcd CD database file
#
# Track frame offsets:
#	150
#	14891
#	33882
#	57040
#	71261
#	91257
#	106993
#	129411
#	145329
#	160348
#	173837
#	200348
#	221924
#	235133
#	260496
#	281187
#	294082
#
# Disc length: 4192 seconds
#
# Revision: 0
# Processed by: cddbd v1.5.2PL0 Copyright (c) Steve Scherf et al.
# Submitted via: CDex 1.75
#
DISCID=f8105e11
DTITLE=John Denver - The Album  CD1 Black Line Coll.2343
DYEAR=2019
DGENRE=Country
TTITLE0=Take Me Home, Country Roads
TTITLE1=Rocky Mountain High
TTITLE2=Sunshine On My Shoulders
TTITLE3=Annie's Song
TTITLE4=Ponies
TTITLE5=Posrcards From Paris
TTITLE6=I Watch You Sleeping
TTITLE7=Higher Ground
TTITLE8=For You
TTITLE9=Whispering Jesse
TTITLE10=Stonehaven Sunset
TTITLE11=The Gift You Are
TTITLE12=The Flower That Shattered The Stone
TTITLE13=Amazon
TTITLE14=Eclipse
TTITLE15=American Child
TTITLE16=All The Joy
EXTD=YEAR: 2019
EXTT0=
EXTT1=
EXTT2=
EXTT3=
EXTT4=
EXTT5=
EXTT6=
EXTT7=
EXTT8=
EXTT9=
EXTT10=
EXTT11=
EXTT12=
EXTT13=
EXTT14=
EXTT15=
EXTT16=
PLAYORDER=
